<svg width="39" height="34" fill="none" xmlns="http://www.w3.org/2000/svg"><path d="M19.89 34h-.69c-3.71-.047-7.28-.612-9.623-1.553a.666.666 0 01-.425-.69c.205-2.494.252-6.446.315-10.022l.031-2.322-.031.11c-.189.628-.378 1.24-.598 1.867l-.912 2.447-1.148 3.748a.69.69 0 01-.597.486c-.094 0-.189 0-.267-.031L.472 26.19a.692.692 0 01-.44-.864c.125-.407.408-1.254.785-2.415l.378-1.192.11-.957C2.154 15.194 6.43 5.33 6.777 4.058a.7.7 0 01.472-.486c3.207-.925 5.016-1.96 7.359-3.45a.695.695 0 01.251-.095h.173l.063-.015a.765.765 0 01.267 0c2.925.674 5.881.549 8.885 0 .094-.016.188 0 .267 0l.078.031.205.079c2.39 1.537 4.198 2.493 6.557 3.309a.683.683 0 01.424.455c.362 1.239 4.325 10.242 5.661 16.045l.189.941.047.047s.094.157.126.235a.523.523 0 01.015.267v.047l.268.816c.424 1.239.755 2.18.88 2.603.126.361-.094.753-.456.863l-5.755 1.647a.68.68 0 01-.849-.455l-1.21-4.047-.535-.972a12.729 12.729 0 01-.425-.957l-.157-.408.031.926c.158 3.654.346 7.7.582 10.242a.679.679 0 01-.44.69c-2.783 1.066-6.353 1.537-9.86 1.553V34zm-.55-1.364l2.218-.032c2.343-.11 4.638-.455 6.62-1.05l.613-.205-.032-.486c-.377-5.113-.692-14.163-.77-16.72v-.266l-.016-.047v-.157l.095-1.553c.141-1.615.408-2.949.77-4.125a15.68 15.68 0 01.818-2.117l.692-1.318-1.227-.47a32.633 32.633 0 01-1.667-.769l-.896-.502-1.368 5.239c-.079.33-.362.502-.66.517a.68.68 0 01-.488-.203l-2.248-2.306-1.447 2.243-.96 2.306v22.067l-.046-.047zm-1.352-.048V10.442c0-.094.016-.173.047-.267l.865-2.101-1.242-1.898-2.327 2.368a.68.68 0 01-.488.204.67.67 0 01-.66-.502l-1.43-5.442-1.4.737c-.77.36-1.604.69-2.563 1.004h-.032l.598 1.207c.298.675.566 1.412.817 2.243.472 1.647.787 3.623.865 6.148 0 .095 0 .189-.047.267v.157c-.189 2.556-.11 11.246-.409 16.296l-.031.502.409.141c1.62.518 3.71.879 5.975 1.051l1.069.047-.016-.016zm2.186-1.02a.674.674 0 01-.66-.705v-.298a.684.684 0 01.707-.659c.378 0 .676.33.66.706v.298a.684.684 0 01-.707.659zm-14.482-5.05l.77-2.493-4.198-1.208-.173.518-.173.564.126-.204a.71.71 0 01.739-.172l.283.11a.68.68 0 01.409.878.716.716 0 01-.676.455.485.485 0 01-.205-.047l-.283-.11a.694.694 0 01-.456-.612l.032-.235-.142.44-.236.72 4.167 1.396h.016zm27.329-.58l4.418-1.255-.267-.784-.11-.345v.047a.655.655 0 01-.44.612l-.284.11s-.125.031-.204.047c-.299 0-.566-.157-.676-.44a.68.68 0 01.409-.878l.283-.11a.71.71 0 01.739.173l.047.078-.142-.407-.188-.534-4.309 1.24.74 2.446h-.016zm-12.847-1.27a.674.674 0 01-.66-.706v-.298a.684.684 0 01.707-.659c.378 0 .676.33.66.706v.298a.684.684 0 01-.707.659zm-13.271-1.93l.66-1.772c.818-2.415 1.415-4.846 2.076-7.309l-.063-1.207c-.142-1.616-.393-2.95-.708-4.094a18.593 18.593 0 00-.739-2.07l-.409-.8-.188.517c-1.274 3.341-4.23 10.65-4.875 14.995l-.063.502 4.324 1.239h-.015zm24.938-.548l4.372-1.255-.126-.627c-.975-4.298-3.475-10.462-4.812-13.819l-.188-.47-.22.408a12.84 12.84 0 00-.74 1.945c-.33 1.066-.581 2.32-.707 3.858l-.079 1.49.425 2.259c.33 1.71.739 3.34 1.4 4.862l.691 1.333-.016.016zm-11.667-3.733a.674.674 0 01-.66-.706v-.298a.684.684 0 01.707-.659c.378 0 .676.33.66.706v.298a.684.684 0 01-.707.659zm2.626-.988a1.3 1.3 0 01-.818-.298 1.513 1.513 0 01-.534-1.177V12.01a.694.694 0 01.692-.674h4.26a.664.664 0 01.693.674v4c0 .455-.19.894-.535 1.176a1.33 1.33 0 01-.818.298h-2.924l-.016-.015zm-9.875-.047a1.3 1.3 0 01-.818-.299 1.513 1.513 0 01-.534-1.176v-3.984a.694.694 0 01.692-.674h4.26a.661.661 0 01.693.659v4c0 .454-.189.893-.535 1.175-.22.173-.503.299-.817.299h-2.941zm12.768-1.334s.016-.062.016-.11V12.67h-2.893v3.31c0 .03 0 .062.015.094h2.862v.015zm-9.875-.031s.016-.063.016-.11v-3.31h-2.893v3.31c0 .032 0 .063.015.094h2.862v.016zm4.356-4.094a.674.674 0 01-.66-.705v-.298a.684.684 0 01.707-.66c.378 0 .676.33.66.707v.298a.684.684 0 01-.707.658zM19.67 6.74l3.349-5.16-1.053.157c-.834.078-1.667.126-2.5.126-.74 0-1.479-.032-2.218-.11l-.927-.157 3.349 5.16V6.74zm-4.45-.015l1.698-1.726-2.17-3.34-.739.454 1.21 4.627v-.015zm8.931-.204l1.164-4.423-.708-.44-2.075 3.2 1.62 1.663z" fill="url(#paint0_linear_291_6354)"/><defs><linearGradient id="paint0_linear_291_6354" x1="15.344" y1="90.883" x2="77.866" y2="-14.447" gradientUnits="userSpaceOnUse"><stop stop-color="#FDEDC9"/><stop offset=".02" stop-color="#F2DDB2"/><stop offset=".07" stop-color="#D6B678"/><stop offset=".08" stop-color="#D0AD6A"/><stop offset=".09" stop-color="#C7A261"/><stop offset=".14" stop-color="#A47B3E"/><stop offset=".18" stop-color="#895C23"/><stop offset=".23" stop-color="#75460F"/><stop offset=".27" stop-color="#693903"/><stop offset=".31" stop-color="#663500"/><stop offset=".35" stop-color="#6A3A04"/><stop offset=".4" stop-color="#794A13"/><stop offset=".46" stop-color="#90652A"/><stop offset=".52" stop-color="#B0894A"/><stop offset=".57" stop-color="#D0AD6A"/><stop offset=".67" stop-color="#ECD5A6"/><stop offset=".73" stop-color="#FDEDC9"/><stop offset=".76" stop-color="#F2DDB2"/><stop offset=".82" stop-color="#D6B678"/><stop offset=".84" stop-color="#D0AD6A"/><stop offset=".95" stop-color="#84571E"/><stop offset="1" stop-color="#663500"/></linearGradient></defs></svg>