<svg width="40" height="40" fill="none" xmlns="http://www.w3.org/2000/svg"><path d="M16.747 40c-.35 0-.7-.136-.99-.377l-5.864-5.047a1.524 1.524 0 01-.153-2.185L31.384 7.727a1.564 1.564 0 012.209-.15l5.864 5.032c.655.557.731 1.537.152 2.185L17.965 39.458a1.61 1.61 0 01-1.066.527h-.152V40zm.046-1.416s.076-.015.09-.046l21.645-24.663s.046-.151 0-.196l-5.88-5.048s-.152-.045-.197 0l-1.188 1.356 3.015 2.592c.29.256.336.708.077.994a.721.721 0 01-.488.241.817.817 0 01-.518-.165l-3.016-2.592-.822.934 1.721 1.477c.29.256.335.708.076.994a.743.743 0 01-.563.241.74.74 0 01-.457-.165l-1.721-1.477-.686.784 1.721 1.476c.29.256.335.708.076.994a.743.743 0 01-.563.241.705.705 0 01-.457-.18l-1.721-1.477-.792.904 3.016 2.592a.693.693 0 01.076.994.721.721 0 01-.488.241.818.818 0 01-.517-.166l-3.016-2.591-.823.934 1.721 1.477c.29.256.335.708.076.994a.743.743 0 01-.563.241.773.773 0 01-.457-.166l-1.721-1.476-.686.783 1.721 1.477a.693.693 0 01.077.994.743.743 0 01-.564.241.676.676 0 01-.457-.18l-1.721-1.477-.685.783 3.015 2.592c.29.256.335.708.076.994a.721.721 0 01-.487.241.818.818 0 01-.518-.165l-3.016-2.592-.822.934 1.721 1.477a.693.693 0 01.076.994.743.743 0 01-.563.241.74.74 0 01-.457-.166l-1.721-1.476-.686.783 1.721 1.477c.29.256.335.708.076.994a.743.743 0 01-.563.241.705.705 0 01-.457-.18l-1.721-1.477-.808.904 3.016 2.591a.693.693 0 01.077.995.721.721 0 01-.488.24.817.817 0 01-.518-.165l-3.016-2.591-.822.934 1.721 1.476c.29.256.335.709.076.995a.743.743 0 01-.563.24.705.705 0 01-.457-.18l-1.722-1.477-.685.784 1.721 1.477c.29.256.335.708.076.994a.743.743 0 01-.563.24.699.699 0 01-.442-.165l-1.721-1.476-.914 1.04s-.046.15 0 .195l5.88 5.047s.06.03.106.03l.03.046zM.768 31.834H.57a.716.716 0 01-.549-.874l2.62-9.145.137-.498L19.793 1.852l.076-.046.03-.045.046-.075L21.21.239a.724.724 0 01.746-.21l2.696.888h.03l.168.106.03.03 2.468 2.094.122.166.03.03 1.402 2.622a.654.654 0 01-.092.768l-1.4 1.597-17.015 19.466-.03.03-.137.09-.076.076-9.17 3.767s-.137.045-.198.045l-.015.03zm1.096-2.004l.655-.271-.457-.392-.182.663h-.016zm2.179-.889l4.737-1.943-1.02-1.522-2.24-1.914-1.645-.768-1.37 4.836 1.538 1.326v-.015zm-.336-1.838c-.09 0-.182 0-.274-.045l-.076-.03a.694.694 0 01-.396-.89l.579-1.446a.707.707 0 01.899-.391l.076.03c.35.135.533.542.396.889l-.579 1.446a.683.683 0 01-.625.437zm6.23-1.01L25.581 8.196l-1.432-.498L9.131 24.873l.807 1.22zm-1.828-2.26l14.806-16.95-1.143-.979-14.805 16.95 1.142.98zm-2.376-1.792L20.784 4.82l-.61-1.206-15.628 17.87 1.173.542.015.015zM26.617 7.034l.731-.828-1.097-2.034-2.224-1.899-2.071-.678-.746.844.974 1.929 2.224 1.898 2.194.768h.015zm-1.584-1.551a.749.749 0 01-.503-.166l-1.31-1.13a.701.701 0 01-.076-.98l.046-.06a.701.701 0 01.975-.075l1.31 1.13c.289.241.32.678.076.98l-.046.06a.688.688 0 01-.472.24z" fill="url(#paint0_linear_291_6184)"/><defs><linearGradient id="paint0_linear_291_6184" x1="15.738" y1="106.921" x2="93.696" y2="-7.577" gradientUnits="userSpaceOnUse"><stop stop-color="#FDEDC9"/><stop offset=".02" stop-color="#F2DDB2"/><stop offset=".07" stop-color="#D6B678"/><stop offset=".08" stop-color="#D0AD6A"/><stop offset=".09" stop-color="#C7A261"/><stop offset=".14" stop-color="#A47B3E"/><stop offset=".18" stop-color="#895C23"/><stop offset=".23" stop-color="#75460F"/><stop offset=".27" stop-color="#693903"/><stop offset=".31" stop-color="#663500"/><stop offset=".35" stop-color="#6A3A04"/><stop offset=".4" stop-color="#794A13"/><stop offset=".46" stop-color="#90652A"/><stop offset=".52" stop-color="#B0894A"/><stop offset=".57" stop-color="#D0AD6A"/><stop offset=".67" stop-color="#ECD5A6"/><stop offset=".73" stop-color="#FDEDC9"/><stop offset=".76" stop-color="#F2DDB2"/><stop offset=".82" stop-color="#D6B678"/><stop offset=".84" stop-color="#D0AD6A"/><stop offset=".95" stop-color="#84571E"/><stop offset="1" stop-color="#663500"/></linearGradient></defs></svg>