<svg width="39" height="40" fill="none" xmlns="http://www.w3.org/2000/svg"><path d="M19.32 40a.882.882 0 01-.816-.556c-2.864-6.915-8.574-5.862-11.267-2.51-.38.46-1.1.442-1.423-.076l-4.42-6.743a.898.898 0 01.285-1.264C9.59 23.908 6.82 13.065.655 11.36.067 11.206-.18 10.516.143 10l3.945-6.13a.867.867 0 011.233-.25c4.78 3.22 9.37 1.342 9.295-2.7 0-.499.398-.92.891-.92h7.986c.493 0 .891.421.891.92-.076 4.042 4.534 5.92 9.295 2.7a.896.896 0 011.233.25L38.857 10a.906.906 0 01-.512 1.36c-6.146 1.705-8.934 12.567-1.024 17.49.436.269.55.843.284 1.265l-4.42 6.743c-.322.498-1.062.537-1.422.077-2.712-3.39-8.403-4.445-11.286 2.51a.882.882 0 01-.816.555h-.341zm.151-2.644l.607-1.015c3.244-4.866 8.27-4.579 11.552-1.973l.645.575 3.32-5.058-.057-.038c-7.644-5.575-5.482-16.59.93-19.675l.265-.115-2.864-4.463-.342.21c-5.235 2.798-10.3.633-10.869-3.907V1.8h-6.316v.096c-.57 4.52-5.634 6.705-10.888 3.908l-.342-.211-2.864 4.463.266.115c6.411 3.085 8.573 14.08.93 19.675l-.058.038 3.32 5.058.645-.575c3.281-2.586 8.327-2.893 11.57 1.973l.588.996-.038.02zM8.906 29.253a.767.767 0 01-.341-.096.898.898 0 01-.399-1.207 21.31 21.31 0 001.29-3.199.877.877 0 011.12-.575c.474.154.72.652.568 1.13a24.933 24.933 0 01-1.384 3.43.92.92 0 01-.854.498v.019zm20.202 0a.92.92 0 01-.854-.498 24.935 24.935 0 01-1.385-3.43.904.904 0 01.57-1.13c.454-.153.967.115 1.118.575a26.25 26.25 0 001.29 3.2.92.92 0 01-.398 1.206.767.767 0 01-.341.096v-.02zm-18.153-6.82a.908.908 0 01-.797-.977 12.459 12.459 0 00-.095-3.353.89.89 0 01.74-1.015.883.883 0 011.005.747c.19 1.284.228 2.548.095 3.793a.904.904 0 01-.967.805h.019zm16.104 0c-.493.038-.93-.307-.968-.805a14.994 14.994 0 01.095-3.793.88.88 0 011.006-.747.886.886 0 01.74 1.015 14.183 14.183 0 00-.095 3.353c.038.498-.304.939-.797.977h.019zM9.987 15.421a.902.902 0 01-.815-.555 21.108 21.108 0 00-1.556-3.046.908.908 0 01.285-1.245.889.889 0 011.233.287c.702 1.13 1.27 2.222 1.707 3.314a.899.899 0 01-.493 1.169c-.114.038-.228.076-.342.057l-.019.02zm18.04 0c-.114 0-.228-.019-.342-.057a.899.899 0 01-.493-1.169 20.403 20.403 0 011.707-3.314.887.887 0 011.214-.287c.398.249.53.824.284 1.245-.645 1.054-1.157 2.05-1.555 3.046a.863.863 0 01-.816.556v-.02z" fill="url(#paint0_linear_291_6205)"/><defs><linearGradient id="paint0_linear_291_6205" x1="15.344" y1="106.921" x2="94.007" y2="-5.724" gradientUnits="userSpaceOnUse"><stop stop-color="#FDEDC9"/><stop offset=".02" stop-color="#F2DDB2"/><stop offset=".07" stop-color="#D6B678"/><stop offset=".08" stop-color="#D0AD6A"/><stop offset=".09" stop-color="#C7A261"/><stop offset=".14" stop-color="#A47B3E"/><stop offset=".18" stop-color="#895C23"/><stop offset=".23" stop-color="#75460F"/><stop offset=".27" stop-color="#693903"/><stop offset=".31" stop-color="#663500"/><stop offset=".35" stop-color="#6A3A04"/><stop offset=".4" stop-color="#794A13"/><stop offset=".46" stop-color="#90652A"/><stop offset=".52" stop-color="#B0894A"/><stop offset=".57" stop-color="#D0AD6A"/><stop offset=".67" stop-color="#ECD5A6"/><stop offset=".73" stop-color="#FDEDC9"/><stop offset=".76" stop-color="#F2DDB2"/><stop offset=".82" stop-color="#D6B678"/><stop offset=".84" stop-color="#D0AD6A"/><stop offset=".95" stop-color="#84571E"/><stop offset="1" stop-color="#663500"/></linearGradient></defs></svg>