<svg width="40" height="40" fill="none" xmlns="http://www.w3.org/2000/svg"><path d="M3.266 39.944C1.468 39.944 0 38.468 0 36.657V12.619c0-1.81 1.468-3.289 3.266-3.289h6.348V8.277c0-.222.092-.443.257-.61l1.761-1.773-1.76-1.774a.872.872 0 01-.258-.61v-.22C9.614 1.479 11.082 0 12.88 0h.257c.22 0 .44.092.605.259l1.652 1.662L17.045.26A.86.86 0 0117.65 0h1.817c.22 0 .44.092.605.259l1.652 1.662L23.375.26A.86.86 0 0123.98 0h1.487c.22 0 .44.092.605.259l1.651 1.662L29.375.26A.86.86 0 0129.98 0h1.817c.22 0 .44.092.605.259l1.651 1.662L35.705.26A.86.86 0 0136.31 0h.404c1.798 0 3.266 1.478 3.266 3.289 0 .24-.11.48-.275.646l-.056.056-1.908 1.921 1.927 1.94a.872.872 0 01.257.61v1.293a.873.873 0 01-.257.61l-1.908 1.921 1.963 1.866a.883.883 0 01.275.684l-.073 1.035c0 .203-.11.406-.257.554l-1.927 1.94 1.927 1.94a.872.872 0 01.257.61v1.293a.873.873 0 01-.257.61l-1.927 1.94 1.89 1.902.037.037a.852.852 0 01.312.666c0 1.81-1.468 3.288-3.266 3.288h-.22a.86.86 0 01-.606-.258l-1.835-1.848-1.834 1.848a.86.86 0 01-.606.258h-1.247v6.06c0 1.81-1.468 3.289-3.266 3.289H3.21l.056-.056zM6 38.209l-4.275-4.305v2.753c0 .868.697 1.552 1.54 1.552H6zm9.779 0L1.706 24.037v7.409l6.11 6.152s.147.185.184.296l.055.332h7.724v-.018zm10.495 0l-24.55-24.72v8.11l16.073 16.185s.147.185.184.277l.036.148h8.275-.018zm1.963-.462l.33-.48c.074-.185.129-.388.129-.61V30.06l-.092-.055L9.78 11.049H3.266c-.22 0-.422.037-.606.129l-.477.332 26.054 26.236zm3.064-8.868l2.184-2.199a.86.86 0 011.21 0l2.166 2.18.495-.11c.367-.167.66-.463.826-.832l.055-.296-2.294-2.31a.874.874 0 010-1.219l2.275-2.29v-.573l-2.275-2.291a.874.874 0 010-1.22l2.294-2.31v-.313l-2.276-2.199a.863.863 0 01-.018-1.238l2.275-2.29v-.574l-2.275-2.29a.874.874 0 010-1.22l2.294-2.31-.055-.295a1.574 1.574 0 00-1.431-.96h-.056l-2.018 2.03a.86.86 0 01-1.21 0l-2.019-2.033h-1.1l-2 2.033a.86.86 0 01-1.212 0l-2.018-2.033h-.77l-2 2.033a.86.86 0 01-1.211 0l-2.019-2.033h-1.1L15.999 3.75a.86.86 0 01-1.21 0l-2-2.014-.514.11c-.367.167-.66.462-.826.832l-.092.499 2.092 2.106c.33.333.33.887 0 1.22l-2.11 2.124v.702h15.797c1.798 0 3.266 1.478 3.266 3.289v16.259h.9zm-2.623-1.22v-8.332l-.147-.037a.726.726 0 01-.275-.185l-8-8.055H12.2l16.476 16.59v.02zm0-10.568V12.6c0-.85-.698-1.551-1.542-1.551h-4.458l6 6.041z" fill="url(#paint0_linear_291_6198)"/><defs><linearGradient id="paint0_linear_291_6198" x1="15.738" y1="106.921" x2="93.696" y2="-7.577" gradientUnits="userSpaceOnUse"><stop stop-color="#FDEDC9"/><stop offset=".02" stop-color="#F2DDB2"/><stop offset=".07" stop-color="#D6B678"/><stop offset=".08" stop-color="#D0AD6A"/><stop offset=".09" stop-color="#C7A261"/><stop offset=".14" stop-color="#A47B3E"/><stop offset=".18" stop-color="#895C23"/><stop offset=".23" stop-color="#75460F"/><stop offset=".27" stop-color="#693903"/><stop offset=".31" stop-color="#663500"/><stop offset=".35" stop-color="#6A3A04"/><stop offset=".4" stop-color="#794A13"/><stop offset=".46" stop-color="#90652A"/><stop offset=".52" stop-color="#B0894A"/><stop offset=".57" stop-color="#D0AD6A"/><stop offset=".67" stop-color="#ECD5A6"/><stop offset=".73" stop-color="#FDEDC9"/><stop offset=".76" stop-color="#F2DDB2"/><stop offset=".82" stop-color="#D6B678"/><stop offset=".84" stop-color="#D0AD6A"/><stop offset=".95" stop-color="#84571E"/><stop offset="1" stop-color="#663500"/></linearGradient></defs></svg>