<svg width="19" height="41" fill="none" xmlns="http://www.w3.org/2000/svg"><path d="M15.12 40.984a.934.934 0 01-.463-.114l-5.05-2.998H9.54L4.755 40.79a.84.84 0 01-1.126-.259.801.801 0 01.265-1.102l2.566-1.556H2.47a.804.804 0 01-.812-.794c0-.437.364-.794.811-.794h6.21v-7.81H.946a.881.881 0 01-.894-.876c0-3.727-.315-6.385 1.606-9.902.48-.875.696-1.782.679-2.706l-.1-.907-.645-1.945C.896 10.064.184 7.828.002 5.428a.885.885 0 01.795-.94c1.755-.177 3.18-.566 4.123-1.182.861-.567 1.275-1.28 1.16-2.317A.889.889 0 016.973 0h5.05c.53 0 .96.47.894.989-.132 1.037.282 1.75 1.16 2.317.927.6 2.367 1.005 4.123 1.183.48.049.844.47.794.94-.165 2.398-.894 4.635-1.59 6.709l-.645 1.945-.1.907a5.347 5.347 0 00.68 2.706c1.904 3.5 1.606 6.159 1.606 9.902a.881.881 0 01-.894.875h-7.733v7.811h6.474c.447 0 .812.357.812.794a.804.804 0 01-.812.794h-4.007l2.749 1.637a.8.8 0 01-.38 1.491l-.033-.016zM4.888 26.707v-1.67c0-.437.364-.793.812-.793.447 0 .81.356.81.794v1.669h10.615v-.503c.033-3.063.05-5.04-1.39-7.681a6.937 6.937 0 01-.762-4.78c0-.033 0-.066.016-.098.778-2.447 1.706-4.748 2.053-7.244l.034-.275-.48-.065c-1.342-.243-2.584-.648-3.544-1.264-1.01-.665-1.722-1.572-1.921-2.739l-.033-.275H7.835v.275c-.166.875-.613 1.604-1.242 2.204l-.133.113.05.276v3.192a.804.804 0 01-.811.795.804.804 0 01-.812-.795V5.348l-.182.08c-.712.293-1.523.503-2.351.65l-.48.064.032.275c.365 2.496 1.292 4.781 2.054 7.244 0 .033.016.065.033.098.083.42.116.826.132 1.231v.033h.083l3.262-.017c.447 0 .812.357.812.794a.804.804 0 01-.812.794H4.208l-.232-.048-.05.243a7.16 7.16 0 01-.695 1.75c-1.44 2.658-1.424 4.619-1.39 7.682v.502h3.08l-.034-.016zm.812-4.068a.804.804 0 01-.812-.794v-3.192c0-.438.364-.794.812-.794.447 0 .81.356.81.794v3.192a.804.804 0 01-.81.794zm5-6.077a.804.804 0 01-.811-.794c0-.438.364-.794.811-.794h3.262c.448 0 .812.356.812.794a.804.804 0 01-.812.794H10.7zm-5-2.609a.804.804 0 01-.812-.794v-2.155c0-.438.364-.794.812-.794.447 0 .81.356.81.794v2.155a.804.804 0 01-.81.794z" fill="url(#paint0_linear_291_6177)"/><defs><linearGradient id="paint0_linear_291_6177" x1="7.475" y1="109.594" x2="87.372" y2="55.215" gradientUnits="userSpaceOnUse"><stop stop-color="#FDEDC9"/><stop offset=".02" stop-color="#F2DDB2"/><stop offset=".07" stop-color="#D6B678"/><stop offset=".08" stop-color="#D0AD6A"/><stop offset=".09" stop-color="#C7A261"/><stop offset=".14" stop-color="#A47B3E"/><stop offset=".18" stop-color="#895C23"/><stop offset=".23" stop-color="#75460F"/><stop offset=".27" stop-color="#693903"/><stop offset=".31" stop-color="#663500"/><stop offset=".35" stop-color="#6A3A04"/><stop offset=".4" stop-color="#794A13"/><stop offset=".46" stop-color="#90652A"/><stop offset=".52" stop-color="#B0894A"/><stop offset=".57" stop-color="#D0AD6A"/><stop offset=".67" stop-color="#ECD5A6"/><stop offset=".73" stop-color="#FDEDC9"/><stop offset=".76" stop-color="#F2DDB2"/><stop offset=".82" stop-color="#D6B678"/><stop offset=".84" stop-color="#D0AD6A"/><stop offset=".95" stop-color="#84571E"/><stop offset="1" stop-color="#663500"/></linearGradient></defs></svg>