<svg width="40" height="40" fill="none" xmlns="http://www.w3.org/2000/svg"><path d="M20 40C8.952 40 0 31.048 0 20S8.952 0 20 0s20 8.97 20 20-8.97 20-20 20zm0-1.714c10.1 0 18.304-8.204 18.304-18.304C38.304 9.882 30.1 1.696 20 1.696 9.9 1.696 1.714 9.9 1.714 19.982S9.918 38.286 20 38.286zm7.748-3.117a.854.854 0 01-.82-.474c-.219-.42-.037-.93.383-1.149a14.26 14.26 0 007.074-8.022.877.877 0 011.094-.529.877.877 0 01.528 1.094 16.043 16.043 0 01-7.93 8.989.743.743 0 01-.329.09zM20 34.494c-8.004 0-14.494-6.49-14.494-14.494S11.996 5.506 20 5.506 34.494 11.996 34.494 20 28.004 34.494 20 34.494zm0-1.86c6.983 0 12.635-5.67 12.635-12.634S26.965 7.366 20 7.366c-6.964 0-12.634 5.67-12.634 12.634S13.017 32.635 20 32.635zm-4.23-5.852a2.894 2.894 0 01-2.899-2.899c0-1.203.73-2.224 1.769-2.68l.273-.09v-2.59l-.273-.09a2.907 2.907 0 01-1.769-2.68 2.894 2.894 0 012.9-2.9 2.894 2.894 0 012.898 2.9c0 1.202-.73 2.241-1.768 2.68l-.274.09v2.59l.274.09a2.907 2.907 0 011.768 2.68 2.894 2.894 0 01-2.899 2.9zm8.442 0a2.894 2.894 0 01-.985-5.615h.055v-2.644l-.2-.054a2.907 2.907 0 01-1.77-2.68 2.894 2.894 0 012.9-2.9 2.894 2.894 0 012.898 2.9 2.908 2.908 0 01-1.768 2.68l-.365.109v2.534h.091c1.185.401 2.042 1.495 2.042 2.79a2.894 2.894 0 01-2.898 2.898v-.018zm-8.442-1.714c.657 0 1.185-.528 1.185-1.203a1.21 1.21 0 00-.09-.456l-.256-.364v.291a.856.856 0 11-1.714 0v-.291l-.255.364a1.202 1.202 0 001.112 1.66h.018zm8.442 0c.656 0 1.203-.528 1.203-1.203 0-.328-.128-.62-.347-.839l-.073-.073v.365a.856.856 0 11-1.713 0v-.2l-.055.073c-.128.2-.2.419-.2.674 0 .656.528 1.203 1.184 1.203zm.783-8.404l.073-.055a1.187 1.187 0 00-.857-2.024c-.674 0-1.185.547-1.185 1.185 0 .164.037.329.092.474l.164.237v-.09a.856.856 0 111.713 0v.273zm-10.082-.055v-.2a.856.856 0 111.714 0v.2l.255-.365a1.195 1.195 0 00-1.094-1.66c-.638.001-1.203.548-1.203 1.186 0 .164.037.329.091.474l.256.365h-.019zm-9.845-1.805c-.109 0-.218 0-.328-.055a.877.877 0 01-.529-1.094 16.042 16.042 0 017.931-8.988c.42-.2.93-.036 1.149.383.219.42.036.93-.383 1.149a14.26 14.26 0 00-7.074 8.022.864.864 0 01-.747.565l-.019.018z" fill="url(#paint0_linear_291_6191)"/><defs><linearGradient id="paint0_linear_291_6191" x1="15.738" y1="106.921" x2="93.696" y2="-7.577" gradientUnits="userSpaceOnUse"><stop stop-color="#FDEDC9"/><stop offset=".02" stop-color="#F2DDB2"/><stop offset=".07" stop-color="#D6B678"/><stop offset=".08" stop-color="#D0AD6A"/><stop offset=".09" stop-color="#C7A261"/><stop offset=".14" stop-color="#A47B3E"/><stop offset=".18" stop-color="#895C23"/><stop offset=".23" stop-color="#75460F"/><stop offset=".27" stop-color="#693903"/><stop offset=".31" stop-color="#663500"/><stop offset=".35" stop-color="#6A3A04"/><stop offset=".4" stop-color="#794A13"/><stop offset=".46" stop-color="#90652A"/><stop offset=".52" stop-color="#B0894A"/><stop offset=".57" stop-color="#D0AD6A"/><stop offset=".67" stop-color="#ECD5A6"/><stop offset=".73" stop-color="#FDEDC9"/><stop offset=".76" stop-color="#F2DDB2"/><stop offset=".82" stop-color="#D6B678"/><stop offset=".84" stop-color="#D0AD6A"/><stop offset=".95" stop-color="#84571E"/><stop offset="1" stop-color="#663500"/></linearGradient></defs></svg>