<svg width="31" height="39" fill="none" xmlns="http://www.w3.org/2000/svg"><path d="M4.934 39a.793.793 0 01-.804-.787c0-.437.357-.77.804-.77h1.591c.447 0 .805.35.805.77 0 .42-.358.787-.805.787h-1.59zm19.058 0a.793.793 0 01-.805-.787c0-.437.358-.77.805-.77H25.6c.447 0 .804.35.804.77 0 .42-.357.787-.804.787h-1.61zM4.38 36.936c-2.413 0-4.38-1.923-4.38-4.284V4.285C0 1.924 1.967 0 4.38 0h22.24C29.033 0 31 1.924 31 4.285v28.367c0 2.36-1.966 4.284-4.38 4.284H4.38zm22.258-1.679c1.376 0 2.52-1.031 2.664-2.343v-.087h-3.898a.793.793 0 01-.804-.788v-3.13c0-.437.357-.787.804-.787h3.916V8.919H1.716v23.698c0 1.451 1.198 2.623 2.682 2.623h22.24v.017zm-11.12-3.252c-6.186 0-11.21-4.915-11.21-10.966 0-6.051 5.024-10.966 11.21-10.966 6.186 0 11.191 4.915 11.191 10.966 0 6.051-5.023 10.965-11.191 10.965zm13.802-.735v-1.556h-3.111v1.556h3.11zm-13.802-.944c5.238 0 9.493-4.163 9.493-9.287 0-5.124-4.255-9.287-9.493-9.287s-9.493 4.163-9.493 9.287c0 5.124 4.255 9.287 9.493 9.287zm0-1.347c-4.487 0-8.117-3.55-8.117-7.94 0-4.39 3.63-7.94 8.117-7.94 4.487 0 8.098 3.55 8.098 7.94 0 4.39-3.629 7.94-8.098 7.94zm0-1.137c3.826 0 6.954-3.043 6.954-6.803s-3.11-6.803-6.954-6.803-6.955 3.043-6.955 6.803 3.111 6.803 6.955 6.803zm-4.934-6.418c-.322 0-.572-.28-.572-.595.035-1.346.482-2.64 1.322-3.585.859-.945 2.128-1.487 3.701-1.347a.574.574 0 01.537.612.59.59 0 01-.626.525c-1.234-.105-2.128.297-2.736.98-.625.681-1 1.696-1.036 2.85 0 .315-.287.56-.608.56h.018zM29.32 7.275v-2.99c0-1.452-1.198-2.624-2.682-2.624H4.398c-1.484 0-2.682 1.172-2.682 2.624v2.99H29.32zM4.362 5.3a.793.793 0 01-.804-.787c0-.437.357-.787.804-.787h1.591c.447 0 .805.35.805.787a.793.793 0 01-.805.787h-1.59zm15.768 0c-.429 0-.804-.35-.804-.787 0-.437.357-.787.804-.787h1.61c.428 0 .804.35.804.787a.793.793 0 01-.805.787H20.13zm4.541 0a.777.777 0 01-.786-.787c0-.437.357-.787.786-.787h1.61c.428 0 .804.35.804.787a.793.793 0 01-.805.787h-1.609z" fill="url(#paint0_linear_291_6212)"/><defs><linearGradient id="paint0_linear_291_6212" x1="12.197" y1="104.248" x2="92.922" y2="10.007" gradientUnits="userSpaceOnUse"><stop stop-color="#FDEDC9"/><stop offset=".02" stop-color="#F2DDB2"/><stop offset=".07" stop-color="#D6B678"/><stop offset=".08" stop-color="#D0AD6A"/><stop offset=".09" stop-color="#C7A261"/><stop offset=".14" stop-color="#A47B3E"/><stop offset=".18" stop-color="#895C23"/><stop offset=".23" stop-color="#75460F"/><stop offset=".27" stop-color="#693903"/><stop offset=".31" stop-color="#663500"/><stop offset=".35" stop-color="#6A3A04"/><stop offset=".4" stop-color="#794A13"/><stop offset=".46" stop-color="#90652A"/><stop offset=".52" stop-color="#B0894A"/><stop offset=".57" stop-color="#D0AD6A"/><stop offset=".67" stop-color="#ECD5A6"/><stop offset=".73" stop-color="#FDEDC9"/><stop offset=".76" stop-color="#F2DDB2"/><stop offset=".82" stop-color="#D6B678"/><stop offset=".84" stop-color="#D0AD6A"/><stop offset=".95" stop-color="#84571E"/><stop offset="1" stop-color="#663500"/></linearGradient></defs></svg>