<svg width="51" height="50" fill="none" xmlns="http://www.w3.org/2000/svg"><path d="M6.242 39.668L.702 27.406l8.017-3.623.507 1.121-7.063 3.192.192-.488 5.203 11.466-1.316.594z" fill="url(#paint0_linear_291_6217)"/><path d="M20.407 33.394a8.29 8.29 0 01-2.854.742 7.202 7.202 0 01-2.702-.362 7.023 7.023 0 01-2.282-1.352c-.667-.613-1.204-1.369-1.61-2.268-.406-.9-.616-1.796-.63-2.69a6.734 6.734 0 012.007-4.872c.663-.68 1.474-1.236 2.435-1.67.95-.429 1.897-.667 2.844-.716a6.723 6.723 0 012.676.352c.854.29 1.614.74 2.282 1.353.679.607 1.222 1.36 1.628 2.26.406.899.613 1.804.62 2.715a6.352 6.352 0 01-.493 2.606 6.97 6.97 0 01-1.497 2.258c-.667.667-1.475 1.215-2.424 1.644zm-.523-1.156a6.329 6.329 0 001.924-1.312 5.52 5.52 0 001.193-1.826c.27-.684.399-1.39.389-2.116a5.622 5.622 0 00-.522-2.211c-.333-.736-.768-1.348-1.307-1.835a5.249 5.249 0 00-1.845-1.107 5.145 5.145 0 00-2.158-.312 6.072 6.072 0 00-2.264.56 6.226 6.226 0 00-1.934 1.337 5.346 5.346 0 00-1.21 1.834 5.653 5.653 0 00-.39 2.116c.01.727.182 1.458.514 2.194a5.57 5.57 0 001.307 1.835 5.89 5.89 0 001.853 1.124c.686.239 1.412.34 2.176.304a6.485 6.485 0 002.274-.585z" fill="url(#paint1_linear_291_6217)"/><path d="M35.713 26.478c-.949.429-1.894.673-2.836.733a6.973 6.973 0 01-2.684-.37 6.734 6.734 0 01-2.281-1.352c-.668-.612-1.204-1.368-1.61-2.268-.407-.899-.62-1.801-.638-2.707a6.733 6.733 0 01.493-2.606 6.938 6.938 0 011.522-2.249c.662-.679 1.468-1.232 2.417-1.661a7.942 7.942 0 012.782-.709 5.599 5.599 0 012.637.412l-.475 1.205c-.748-.28-1.485-.39-2.21-.33a6.27 6.27 0 00-2.176.562 6.226 6.226 0 00-1.934 1.337 5.343 5.343 0 00-1.21 1.834 5.496 5.496 0 00-.407 2.125c.01.726.181 1.457.514 2.193.332.736.77 1.354 1.314 1.853a5.79 5.79 0 001.863 1.099 5.74 5.74 0 002.177.303 6.487 6.487 0 002.274-.585 6.27 6.27 0 001.86-1.262 5.271 5.271 0 001.204-1.894l1.22.44a5.777 5.777 0 01-1.427 2.27 7.999 7.999 0 01-2.389 1.627z" fill="url(#paint2_linear_291_6217)"/><path d="M45.395 21.977l-5.192-11.491.518.187-4.792 2.165-.507-1.12 10.18-4.6.506 1.121-4.774 2.157.184-.505 5.192 11.492-1.315.594z" fill="url(#paint3_linear_291_6217)"/><path d="M31.905 44.448c-.275.009-.541-.342-.323-.64l2.334-3.28-.259-.146a6.343 6.343 0 01-.557-.358c-1.954-1.393-3.085-3.656-.937-6.21 1.39-1.649 3.998-1.828 6.518-1.768l1.244.043 2.439-3.426-.073-.05c-1.002-.923-1.268-2.307.428-3.793 2.827-2.486 7.414 1.084 6.122 5.313-.8 2.613-3.659 2.912-6.534 2.86l-.888-.025-6.025 7.397.347.137c1.3.453 2.617.598 3.44.384 2.27-.59 2.044-2.588.517-2.69-.21-.017-.363-.205-.355-.427a.393.393 0 01.404-.376c2.487.17 2.681 3.468-.388 4.262-.395.102-.864.137-1.38.111-.768-.043-1.64-.222-2.488-.512l-.63-.24-2.698 3.314a.4.4 0 01-.266.146l.008-.026zm2.471-4.57l4.991-7.004-.904-.025c-2.512-.043-4.596.154-5.726 1.495-1.745 2.084-.937 3.783.791 5.022.218.154.453.307.695.444l.153.077v-.009zm4.725-5.312l1.349-1.658h-.162l-1.187 1.658zm3.311-2.392c2.916.043 5.096-.299 5.71-2.306 1.098-3.596-2.77-6.338-4.919-4.45-1.114.973-1.13 1.742-.654 2.331l.267.274.912-1.282c.428-.597 1.09-.956 1.632-.734.67.273.63 1.076.178 1.888a.26.26 0 01-.04.06l-.808.99.347.086c.622.12 1.187.11 1.478-.026.194-.094.412 0 .5.205a.406.406 0 01-.193.53c-.566.264-1.535.222-2.48-.043l-.202-.068-2.083 2.553h.347l.008-.008zm-1.325-.034l2.302-2.828-.129-.06-.258-.144-2.157 3.023h.242v.009zm2.82-3.468l.993-1.221.105-.206c.217-.478.04-.512.072-.495-.064-.026-.404 0-.75.478l-.881 1.23.153.086.299.128h.008z" fill="url(#paint4_linear_291_6217)"/><defs><linearGradient id="paint0_linear_291_6217" x1="33.384" y1="52.657" x2="20.131" y2="-2.101" gradientUnits="userSpaceOnUse"><stop stop-color="#FDEDC9"/><stop offset=".02" stop-color="#F2DDB2"/><stop offset=".07" stop-color="#D6B678"/><stop offset=".08" stop-color="#D0AD6A"/><stop offset=".09" stop-color="#C7A261"/><stop offset=".14" stop-color="#A47B3E"/><stop offset=".18" stop-color="#895C23"/><stop offset=".23" stop-color="#75460F"/><stop offset=".27" stop-color="#693903"/><stop offset=".31" stop-color="#663500"/><stop offset=".35" stop-color="#6A3A04"/><stop offset=".4" stop-color="#794A13"/><stop offset=".46" stop-color="#90652A"/><stop offset=".52" stop-color="#B0894A"/><stop offset=".57" stop-color="#D0AD6A"/><stop offset=".67" stop-color="#ECD5A6"/><stop offset=".73" stop-color="#FDEDC9"/><stop offset=".76" stop-color="#F2DDB2"/><stop offset=".82" stop-color="#D6B678"/><stop offset=".84" stop-color="#D0AD6A"/><stop offset=".95" stop-color="#84571E"/><stop offset="1" stop-color="#663500"/></linearGradient><linearGradient id="paint1_linear_291_6217" x1="33.384" y1="52.657" x2="20.131" y2="-2.101" gradientUnits="userSpaceOnUse"><stop stop-color="#FDEDC9"/><stop offset=".02" stop-color="#F2DDB2"/><stop offset=".07" stop-color="#D6B678"/><stop offset=".08" stop-color="#D0AD6A"/><stop offset=".09" stop-color="#C7A261"/><stop offset=".14" stop-color="#A47B3E"/><stop offset=".18" stop-color="#895C23"/><stop offset=".23" stop-color="#75460F"/><stop offset=".27" stop-color="#693903"/><stop offset=".31" stop-color="#663500"/><stop offset=".35" stop-color="#6A3A04"/><stop offset=".4" stop-color="#794A13"/><stop offset=".46" stop-color="#90652A"/><stop offset=".52" stop-color="#B0894A"/><stop offset=".57" stop-color="#D0AD6A"/><stop offset=".67" stop-color="#ECD5A6"/><stop offset=".73" stop-color="#FDEDC9"/><stop offset=".76" stop-color="#F2DDB2"/><stop offset=".82" stop-color="#D6B678"/><stop offset=".84" stop-color="#D0AD6A"/><stop offset=".95" stop-color="#84571E"/><stop offset="1" stop-color="#663500"/></linearGradient><linearGradient id="paint2_linear_291_6217" x1="33.384" y1="52.657" x2="20.131" y2="-2.101" gradientUnits="userSpaceOnUse"><stop stop-color="#FDEDC9"/><stop offset=".02" stop-color="#F2DDB2"/><stop offset=".07" stop-color="#D6B678"/><stop offset=".08" stop-color="#D0AD6A"/><stop offset=".09" stop-color="#C7A261"/><stop offset=".14" stop-color="#A47B3E"/><stop offset=".18" stop-color="#895C23"/><stop offset=".23" stop-color="#75460F"/><stop offset=".27" stop-color="#693903"/><stop offset=".31" stop-color="#663500"/><stop offset=".35" stop-color="#6A3A04"/><stop offset=".4" stop-color="#794A13"/><stop offset=".46" stop-color="#90652A"/><stop offset=".52" stop-color="#B0894A"/><stop offset=".57" stop-color="#D0AD6A"/><stop offset=".67" stop-color="#ECD5A6"/><stop offset=".73" stop-color="#FDEDC9"/><stop offset=".76" stop-color="#F2DDB2"/><stop offset=".82" stop-color="#D6B678"/><stop offset=".84" stop-color="#D0AD6A"/><stop offset=".95" stop-color="#84571E"/><stop offset="1" stop-color="#663500"/></linearGradient><linearGradient id="paint3_linear_291_6217" x1="33.384" y1="52.657" x2="20.131" y2="-2.101" gradientUnits="userSpaceOnUse"><stop stop-color="#FDEDC9"/><stop offset=".02" stop-color="#F2DDB2"/><stop offset=".07" stop-color="#D6B678"/><stop offset=".08" stop-color="#D0AD6A"/><stop offset=".09" stop-color="#C7A261"/><stop offset=".14" stop-color="#A47B3E"/><stop offset=".18" stop-color="#895C23"/><stop offset=".23" stop-color="#75460F"/><stop offset=".27" stop-color="#693903"/><stop offset=".31" stop-color="#663500"/><stop offset=".35" stop-color="#6A3A04"/><stop offset=".4" stop-color="#794A13"/><stop offset=".46" stop-color="#90652A"/><stop offset=".52" stop-color="#B0894A"/><stop offset=".57" stop-color="#D0AD6A"/><stop offset=".67" stop-color="#ECD5A6"/><stop offset=".73" stop-color="#FDEDC9"/><stop offset=".76" stop-color="#F2DDB2"/><stop offset=".82" stop-color="#D6B678"/><stop offset=".84" stop-color="#D0AD6A"/><stop offset=".95" stop-color="#84571E"/><stop offset="1" stop-color="#663500"/></linearGradient><linearGradient id="paint4_linear_291_6217" x1="38.108" y1="78.727" x2="79.593" y2="24.965" gradientUnits="userSpaceOnUse"><stop stop-color="#FDEDC9"/><stop offset=".02" stop-color="#F2DDB2"/><stop offset=".07" stop-color="#D6B678"/><stop offset=".08" stop-color="#D0AD6A"/><stop offset=".09" stop-color="#C7A261"/><stop offset=".14" stop-color="#A47B3E"/><stop offset=".18" stop-color="#895C23"/><stop offset=".23" stop-color="#75460F"/><stop offset=".27" stop-color="#693903"/><stop offset=".31" stop-color="#663500"/><stop offset=".35" stop-color="#6A3A04"/><stop offset=".4" stop-color="#794A13"/><stop offset=".46" stop-color="#90652A"/><stop offset=".52" stop-color="#B0894A"/><stop offset=".57" stop-color="#D0AD6A"/><stop offset=".67" stop-color="#ECD5A6"/><stop offset=".73" stop-color="#FDEDC9"/><stop offset=".76" stop-color="#F2DDB2"/><stop offset=".82" stop-color="#D6B678"/><stop offset=".84" stop-color="#D0AD6A"/><stop offset=".95" stop-color="#84571E"/><stop offset="1" stop-color="#663500"/></linearGradient></defs></svg>