<svg width="62" height="66" fill="none" xmlns="http://www.w3.org/2000/svg"><path d="M60.659 49.093a32 32 0 11-.226-32.568" stroke="url(#paint0_linear_200_4445)"/><path d="M27.378 23.795c.453.7 8.034 5.451 11.767 7.74 2.082.898 1.396 1.955.792 2.371L28.85 41.271c-.83.291-2.33 1.248-1.697 2.746s2.225.957 2.942.5c3.017-2.622 9.459-8.29 11.088-9.987 1.63-1.697.453-3.204-.34-3.745-3.13-2.662-9.549-8.113-10.182-8.612-.793-.624-1.358-1.373-2.603-1.124-1.245.25-1.245 1.873-.679 2.746z" fill="url(#paint1_linear_200_4445)"/><defs><linearGradient id="paint0_linear_200_4445" x1="24.472" y1="172.074" x2="152.181" y2="-2.771" gradientUnits="userSpaceOnUse"><stop stop-color="#FDEDC9"/><stop offset=".02" stop-color="#F2DDB2"/><stop offset=".07" stop-color="#D6B678"/><stop offset=".08" stop-color="#D0AD6A"/><stop offset=".09" stop-color="#C7A261"/><stop offset=".14" stop-color="#A47B3E"/><stop offset=".18" stop-color="#895C23"/><stop offset=".23" stop-color="#75460F"/><stop offset=".27" stop-color="#693903"/><stop offset=".31" stop-color="#663500"/><stop offset=".35" stop-color="#6A3A04"/><stop offset=".4" stop-color="#794A13"/><stop offset=".46" stop-color="#90652A"/><stop offset=".52" stop-color="#B0894A"/><stop offset=".57" stop-color="#D0AD6A"/><stop offset=".67" stop-color="#ECD5A6"/><stop offset=".73" stop-color="#FDEDC9"/><stop offset=".76" stop-color="#F2DDB2"/><stop offset=".82" stop-color="#D6B678"/><stop offset=".84" stop-color="#D0AD6A"/><stop offset=".95" stop-color="#84571E"/><stop offset="1" stop-color="#663500"/></linearGradient><linearGradient id="paint1_linear_200_4445" x1="34.499" y1="45" x2="34.499" y2="21" gradientUnits="userSpaceOnUse"><stop stop-color="#FDEDC9"/><stop offset=".02" stop-color="#F2DDB2"/><stop offset=".07" stop-color="#D6B678"/><stop offset=".08" stop-color="#D0AD6A"/><stop offset=".09" stop-color="#C7A261"/><stop offset=".14" stop-color="#A47B3E"/><stop offset=".18" stop-color="#895C23"/><stop offset=".23" stop-color="#75460F"/><stop offset=".27" stop-color="#693903"/><stop offset=".31" stop-color="#663500"/><stop offset=".35" stop-color="#6A3A04"/><stop offset=".4" stop-color="#794A13"/><stop offset=".46" stop-color="#90652A"/><stop offset=".52" stop-color="#B0894A"/><stop offset=".57" stop-color="#D0AD6A"/><stop offset=".67" stop-color="#ECD5A6"/><stop offset=".73" stop-color="#FDEDC9"/><stop offset=".76" stop-color="#F2DDB2"/><stop offset=".82" stop-color="#D6B678"/><stop offset=".84" stop-color="#D0AD6A"/><stop offset=".95" stop-color="#84571E"/><stop offset="1" stop-color="#663500"/></linearGradient></defs></svg>