<svg width="15" height="24" fill="none" xmlns="http://www.w3.org/2000/svg"><path d="M.378 2.795c.453.7 8.034 5.451 11.768 7.74 2.081.898 1.395 1.955.791 2.371L1.85 20.271c-.83.291-2.33 1.248-1.697 2.746.634 1.498 2.225.957 2.942.5 3.017-2.622 9.459-8.29 11.088-9.987 1.63-1.697.453-3.204-.34-3.744-3.13-2.663-9.549-8.114-10.183-8.613C2.867.549 2.302-.2 1.057.049-.188.3-.188 1.922.378 2.795z" fill="url(#paint0_linear_290_4767)"/><defs><linearGradient id="paint0_linear_290_4767" x1="7.499" y1="24" x2="7.499" y2="0" gradientUnits="userSpaceOnUse"><stop stop-color="#FDEDC9"/><stop offset=".02" stop-color="#F2DDB2"/><stop offset=".07" stop-color="#D6B678"/><stop offset=".08" stop-color="#D0AD6A"/><stop offset=".09" stop-color="#C7A261"/><stop offset=".14" stop-color="#A47B3E"/><stop offset=".18" stop-color="#895C23"/><stop offset=".23" stop-color="#75460F"/><stop offset=".27" stop-color="#693903"/><stop offset=".31" stop-color="#663500"/><stop offset=".35" stop-color="#6A3A04"/><stop offset=".4" stop-color="#794A13"/><stop offset=".46" stop-color="#90652A"/><stop offset=".52" stop-color="#B0894A"/><stop offset=".57" stop-color="#D0AD6A"/><stop offset=".67" stop-color="#ECD5A6"/><stop offset=".73" stop-color="#FDEDC9"/><stop offset=".76" stop-color="#F2DDB2"/><stop offset=".82" stop-color="#D6B678"/><stop offset=".84" stop-color="#D0AD6A"/><stop offset=".95" stop-color="#84571E"/><stop offset="1" stop-color="#663500"/></linearGradient></defs></svg>