<svg width="21" height="22" fill="none" xmlns="http://www.w3.org/2000/svg"><path d="M5.97 9.47a.75.75 0 000 1.06l.4.4a5.841 5.841 0 008.26 0l.4-.4a.75.75 0 10-1.06-1.06l-.4.4a4.341 4.341 0 01-6.14 0l-.4-.4a.75.75 0 00-1.06 0z" fill="#fff"/><path fill-rule="evenodd" clip-rule="evenodd" d="M10.5.25a4.75 4.75 0 00-4.716 4.18 4.766 4.766 0 00-1.104.343 5.75 5.75 0 00-2.451 2.135c-.36.564-.574 1.195-.742 1.965-.164.755-.295 1.696-.461 2.893l-.01.066c-.213 1.54-.38 2.744-.431 3.714-.052.984.01 1.805.307 2.558a5.75 5.75 0 002.53 2.907c.706.397 1.51.572 2.492.656.968.083 2.184.083 3.738.083h1.697c1.554 0 2.77 0 3.737-.083.983-.085 1.787-.26 2.492-.656a5.75 5.75 0 002.531-2.907c.296-.753.359-1.574.307-2.558-.05-.97-.218-2.174-.432-3.714l-.009-.066c-.166-1.197-.297-2.138-.461-2.893-.168-.77-.382-1.401-.742-1.965a5.75 5.75 0 00-2.451-2.135 4.766 4.766 0 00-1.105-.344A4.75 4.75 0 0010.5.25zm-.857 4c-.902 0-1.661 0-2.311.025a3.251 3.251 0 016.337 0 62.95 62.95 0 00-2.311-.025H9.643zM6.579 5.829c.738-.078 1.694-.079 3.11-.079h1.623c1.416 0 2.372.001 3.11.079.552.058.941.155 1.274.308a4.25 4.25 0 011.812 1.577c.227.356.391.796.54 1.479.15.692.274 1.575.446 2.81.22 1.583.377 2.723.424 3.621.047.89-.021 1.465-.205 1.931a4.25 4.25 0 01-1.87 2.149c-.437.245-.996.392-1.885.468-.896.077-2.047.078-3.646.078H9.688c-1.598 0-2.75 0-3.645-.078-.889-.076-1.448-.223-1.885-.468a4.25 4.25 0 01-1.87-2.149c-.184-.466-.252-1.04-.205-1.93.047-.899.204-2.04.424-3.622.172-1.235.295-2.118.446-2.81.148-.683.313-1.123.54-1.479a4.25 4.25 0 011.812-1.577c.333-.153.722-.25 1.274-.308z" fill="#fff"/></svg>