<svg width="20" height="20" fill="none" xmlns="http://www.w3.org/2000/svg"><path d="M10.75 1a.75.75 0 00-1.5 0v12.81c-.323-.327-.706-.809-1.264-1.513l-1.398-1.763a.75.75 0 00-1.176.932l1.427 1.799c.533.672.973 1.227 1.367 1.622.404.406.852.742 1.425.834a2.349 2.349 0 00.738 0c.573-.092 1.021-.428 1.425-.834.394-.395.834-.95 1.367-1.622l1.427-1.799a.75.75 0 00-1.176-.932l-1.398 1.763c-.558.704-.941 1.186-1.264 1.513V1z" fill="#25282A"/><path d="M18.6 8.55a.75.75 0 10-1.2.9c.534.71.85 1.592.85 2.55v1c0 .958-.002 1.35-.052 1.665a4.25 4.25 0 01-3.533 3.533c-.316.05-.707.052-1.665.052H7c-.958 0-1.35-.002-1.665-.052a4.25 4.25 0 01-3.533-3.533c-.05-.316-.052-.707-.052-1.665v-1c0-.958.316-1.84.85-2.55a.75.75 0 00-1.2-.9A5.728 5.728 0 00.25 12v1.08c0 .853 0 1.372.07 1.82a5.75 5.75 0 004.78 4.78c.448.07.967.07 1.82.07h6.16c.853 0 1.372 0 1.82-.07a5.75 5.75 0 004.78-4.78c.07-.448.07-.967.07-1.82V12c0-1.294-.428-2.49-1.15-3.45z" fill="#25282A"/></svg>