<svg width="23" height="23" fill="none" xmlns="http://www.w3.org/2000/svg"><path d="M22.112 11.24a10.352 10.352 0 11-5.176-8.964" stroke="url(#paint0_linear_8_1459)"/><path d="M21.963 5.743a.593.593 0 00-.082-.86.66.66 0 00-.9.078l-4.598 5.272c-.924 1.06-1.574 1.803-2.137 2.289-.55.475-.93.626-1.303.626-.373 0-.753-.151-1.303-.626-.564-.486-1.214-1.23-2.137-2.289l-1.186-1.36a.66.66 0 00-.901-.078.593.593 0 00-.082.861l1.219 1.398c.883 1.013 1.59 1.824 2.23 2.375.66.57 1.334.941 2.16.941.825 0 1.5-.371 2.16-.94.64-.552 1.347-1.363 2.23-2.376l4.63-5.31z" fill="url(#paint1_linear_8_1459)"/><defs><linearGradient id="paint0_linear_8_1459" x1="9.554" y1="56.23" x2="49.905" y2="-3.033" gradientUnits="userSpaceOnUse"><stop stop-color="#FDEDC9"/><stop offset=".02" stop-color="#F2DDB2"/><stop offset=".07" stop-color="#D6B678"/><stop offset=".08" stop-color="#D0AD6A"/><stop offset=".09" stop-color="#C7A261"/><stop offset=".14" stop-color="#A47B3E"/><stop offset=".18" stop-color="#895C23"/><stop offset=".23" stop-color="#75460F"/><stop offset=".27" stop-color="#693903"/><stop offset=".31" stop-color="#663500"/><stop offset=".35" stop-color="#6A3A04"/><stop offset=".4" stop-color="#794A13"/><stop offset=".46" stop-color="#90652A"/><stop offset=".52" stop-color="#B0894A"/><stop offset=".57" stop-color="#D0AD6A"/><stop offset=".67" stop-color="#ECD5A6"/><stop offset=".73" stop-color="#FDEDC9"/><stop offset=".76" stop-color="#F2DDB2"/><stop offset=".82" stop-color="#D6B678"/><stop offset=".84" stop-color="#D0AD6A"/><stop offset=".95" stop-color="#84571E"/><stop offset="1" stop-color="#663500"/></linearGradient><linearGradient id="paint1_linear_8_1459" x1="13.058" y1="30.481" x2="27.913" y2="-3.336" gradientUnits="userSpaceOnUse"><stop stop-color="#FDEDC9"/><stop offset=".02" stop-color="#F2DDB2"/><stop offset=".07" stop-color="#D6B678"/><stop offset=".08" stop-color="#D0AD6A"/><stop offset=".09" stop-color="#C7A261"/><stop offset=".14" stop-color="#A47B3E"/><stop offset=".18" stop-color="#895C23"/><stop offset=".23" stop-color="#75460F"/><stop offset=".27" stop-color="#693903"/><stop offset=".31" stop-color="#663500"/><stop offset=".35" stop-color="#6A3A04"/><stop offset=".4" stop-color="#794A13"/><stop offset=".46" stop-color="#90652A"/><stop offset=".52" stop-color="#B0894A"/><stop offset=".57" stop-color="#D0AD6A"/><stop offset=".67" stop-color="#ECD5A6"/><stop offset=".73" stop-color="#FDEDC9"/><stop offset=".76" stop-color="#F2DDB2"/><stop offset=".82" stop-color="#D6B678"/><stop offset=".84" stop-color="#D0AD6A"/><stop offset=".95" stop-color="#84571E"/><stop offset="1" stop-color="#663500"/></linearGradient></defs></svg>