<svg width="37" height="37" fill="none" xmlns="http://www.w3.org/2000/svg"><path d="M22.719 1.625c0-.777.63-1.406 1.406-1.406H26C31.954.219 36.781 5.046 36.781 11v1.875a1.406 1.406 0 11-2.812 0V11A7.969 7.969 0 0026 3.031h-1.875c-.777 0-1.406-.63-1.406-1.406zM.219 11C.219 5.046 5.046.219 11 .219h1.875a1.406 1.406 0 110 2.812H11A7.969 7.969 0 003.031 11v1.875a1.406 1.406 0 11-2.812 0V11zm1.406 11.719c.777 0 1.406.63 1.406 1.406V26A7.969 7.969 0 0011 33.969h1.875a1.406 1.406 0 110 2.812H11C5.046 36.781.219 31.954.219 26v-1.875c0-.777.63-1.406 1.406-1.406zm33.75 0c.777 0 1.406.63 1.406 1.406V26c0 5.954-4.827 10.781-10.781 10.781h-1.875a1.406 1.406 0 110-2.812H26A7.969 7.969 0 0033.969 26v-1.875c0-.777.63-1.406 1.406-1.406z" fill="#fff"/></svg>