<svg width="55" height="56" fill="none" xmlns="http://www.w3.org/2000/svg"><path d="M53.737 0h-4.866a.922.922 0 00-.921.922v1.512H30.716V.922A.922.922 0 0029.794 0H24.93a.922.922 0 00-.922.922v1.512H6.773V.922A.922.922 0 005.85 0H.984a.922.922 0 00-.921.922v4.867a.922.922 0 00.921.921h4.867a.922.922 0 00.922-.921V4.278h13.752C12.96 6.97 7.38 13.985 6.673 22.398h-2.21a.922.922 0 00-.921.922v4.867a.921.921 0 00.921.922h4.872a.922.922 0 00.921-.922V23.32a.922.922 0 00-.921-.922h-.807c.795-8.638 7.215-15.638 15.48-17.155v.542a.922.922 0 00.922.921h4.867a.921.921 0 00.921-.921v-.538C38.986 6.76 45.404 13.754 46.2 22.403h-.807a.921.921 0 00-.921.921v4.863a.921.921 0 00.921.922h4.867a.922.922 0 00.922-.922V23.32a.922.922 0 00-.922-.922h-2.21c-.709-8.413-6.288-15.432-13.851-18.12H47.95v1.51a.922.922 0 00.921.922h4.866a.921.921 0 00.922-.921V.922A.922.922 0 0053.737 0zM4.93 4.867H1.906V1.843H4.93v3.024zm3.48 22.399H5.386v-3.024H8.41v3.024zM28.873 4.867h-3.024V1.843h3.024v3.024zM46.31 24.241h3.024v3.025H46.31v-3.024zm6.505-19.374h-3.023V1.843h3.023v3.024z" fill="url(#paint0_linear_291_6158)"/><path d="M32.669 24.705a39.082 39.082 0 01-3-9.967 2.916 2.916 0 10-4.652 0 39.066 39.066 0 01-2.977 9.973c-1.829 3.998-5.246 8.373-5.281 8.416a.917.917 0 00-.166.807l3.783 14.178a3.648 3.648 0 001.276 7.063l11.463-.008a3.648 3.648 0 001.265-7.068l3.753-14.178a.925.925 0 00-.167-.807c-.033-.045-3.457-4.41-5.297-8.409zm-5.33-12.788a1.072 1.072 0 01.922 1.617v-.545h-1.843v.545a1.07 1.07 0 01.922-1.62v.003zM25.2 34.907a2.16 2.16 0 114.317-.007 2.16 2.16 0 01-4.315.006H25.2zm9.716 16.615a1.806 1.806 0 01-1.802 1.806l-11.464.008a1.805 1.805 0 010-3.608l11.467-.01a1.812 1.812 0 011.803 1.803h-.004zm-2.382-3.647l-10.32.008-3.73-13.98c.884-1.166 3.599-4.866 5.225-8.42a41.236 41.236 0 002.713-8.214l.013 13.74a4.004 4.004 0 00.926 7.898 4.002 4.002 0 00.914-7.898l-.012-13.744a41.3 41.3 0 002.727 8.21c1.635 3.553 4.357 7.248 5.246 8.41l-3.702 13.99z" fill="url(#paint1_linear_291_6158)"/><defs><linearGradient id="paint0_linear_291_6158" x1="21.543" y1="147.485" x2="129.488" y2="-9.392" gradientUnits="userSpaceOnUse"><stop stop-color="#FDEDC9"/><stop offset=".02" stop-color="#F2DDB2"/><stop offset=".07" stop-color="#D6B678"/><stop offset=".08" stop-color="#D0AD6A"/><stop offset=".09" stop-color="#C7A261"/><stop offset=".14" stop-color="#A47B3E"/><stop offset=".18" stop-color="#895C23"/><stop offset=".23" stop-color="#75460F"/><stop offset=".27" stop-color="#693903"/><stop offset=".31" stop-color="#663500"/><stop offset=".35" stop-color="#6A3A04"/><stop offset=".4" stop-color="#794A13"/><stop offset=".46" stop-color="#90652A"/><stop offset=".52" stop-color="#B0894A"/><stop offset=".57" stop-color="#D0AD6A"/><stop offset=".67" stop-color="#ECD5A6"/><stop offset=".73" stop-color="#FDEDC9"/><stop offset=".76" stop-color="#F2DDB2"/><stop offset=".82" stop-color="#D6B678"/><stop offset=".84" stop-color="#D0AD6A"/><stop offset=".95" stop-color="#84571E"/><stop offset="1" stop-color="#663500"/></linearGradient><linearGradient id="paint1_linear_291_6158" x1="21.543" y1="147.485" x2="129.488" y2="-9.392" gradientUnits="userSpaceOnUse"><stop stop-color="#FDEDC9"/><stop offset=".02" stop-color="#F2DDB2"/><stop offset=".07" stop-color="#D6B678"/><stop offset=".08" stop-color="#D0AD6A"/><stop offset=".09" stop-color="#C7A261"/><stop offset=".14" stop-color="#A47B3E"/><stop offset=".18" stop-color="#895C23"/><stop offset=".23" stop-color="#75460F"/><stop offset=".27" stop-color="#693903"/><stop offset=".31" stop-color="#663500"/><stop offset=".35" stop-color="#6A3A04"/><stop offset=".4" stop-color="#794A13"/><stop offset=".46" stop-color="#90652A"/><stop offset=".52" stop-color="#B0894A"/><stop offset=".57" stop-color="#D0AD6A"/><stop offset=".67" stop-color="#ECD5A6"/><stop offset=".73" stop-color="#FDEDC9"/><stop offset=".76" stop-color="#F2DDB2"/><stop offset=".82" stop-color="#D6B678"/><stop offset=".84" stop-color="#D0AD6A"/><stop offset=".95" stop-color="#84571E"/><stop offset="1" stop-color="#663500"/></linearGradient></defs></svg>