<svg width="64" height="58" fill="none" xmlns="http://www.w3.org/2000/svg"><path d="M1 13.73l11.423 34.31m17.315-8.93l-6.723-19.776m11.217-18.14l28.56 1.965M32.823 46.442c0 5.667-4.594 10.261-10.261 10.261-5.667 0-10.261-4.594-10.261-10.26 0-5.668 4.594-10.262 10.26-10.262 5.668 0 10.262 4.594 10.262 10.261zm-5.678 0a4.584 4.584 0 11-9.167 0 4.584 4.584 0 019.167 0zM43.098 4.865c4.896 4.896 4.896 12.834 0 17.73-4.896 4.896-12.834 4.896-17.73 0-4.896-4.896-4.896-12.834 0-17.73 4.896-4.896 12.834-4.896 17.73 0zm-6.721 3.701a5.604 5.604 0 11-4.262 10.365 5.604 5.604 0 014.262-10.365z" stroke="url(#paint0_linear_291_6088)" stroke-width="2" stroke-linecap="round" stroke-linejoin="round"/><defs><linearGradient id="paint0_linear_291_6088" x1="25.311" y1="149.573" x2="128.828" y2="-19.667" gradientUnits="userSpaceOnUse"><stop stop-color="#FDEDC9"/><stop offset=".02" stop-color="#F2DDB2"/><stop offset=".07" stop-color="#D6B678"/><stop offset=".08" stop-color="#D0AD6A"/><stop offset=".09" stop-color="#C7A261"/><stop offset=".14" stop-color="#A47B3E"/><stop offset=".18" stop-color="#895C23"/><stop offset=".23" stop-color="#75460F"/><stop offset=".27" stop-color="#693903"/><stop offset=".31" stop-color="#663500"/><stop offset=".35" stop-color="#6A3A04"/><stop offset=".4" stop-color="#794A13"/><stop offset=".46" stop-color="#90652A"/><stop offset=".52" stop-color="#B0894A"/><stop offset=".57" stop-color="#D0AD6A"/><stop offset=".67" stop-color="#ECD5A6"/><stop offset=".73" stop-color="#FDEDC9"/><stop offset=".76" stop-color="#F2DDB2"/><stop offset=".82" stop-color="#D6B678"/><stop offset=".84" stop-color="#D0AD6A"/><stop offset=".95" stop-color="#84571E"/><stop offset="1" stop-color="#663500"/></linearGradient></defs></svg>