<svg width="60" height="36" fill="none" xmlns="http://www.w3.org/2000/svg"><path d="M59.492 31.47a.817.817 0 00-.587-.25h-.201c-1.039 0-1.54-.133-1.777-.24-.115-.268-.25-1.008-.31-1.672l.135-8.456v-.045c0-.11-.107-2.665-.316-3.852a8.454 8.454 0 00-1.273-3.277 6.257 6.257 0 00-2.705-2.21c-1.112-.493-2.527-.744-4.207-.744-3.268 0-5.692.774-7.205 2.298a5.63 5.63 0 00-1.637 4.114 1.752 1.752 0 001.368 1.7c.06.013.12.02.18.02 4.471 0 5.238-1.242 5.726-2.74.224-.687.327-1.002 1.917-1.002.815 0 1.37.17 1.698.518.611.647.68 2.119.614 3.712l-3.61.625c-1.049.183-2.14.427-3.241.725-1.117.296-2.183.76-3.16 1.377a7.776 7.776 0 00-2.409 2.445c-.64 1.026-.966 2.305-.966 3.803 0 2.093.596 3.79 1.77 5.04 1.176 1.25 2.864 1.908 4.977 1.908h.01c2.885-.03 5.157-1.752 6.537-3.154l.013 1.674a.814.814 0 00.813.807h7.193a.813.813 0 00.812-.783l.067-1.752a.814.814 0 00-.226-.59zm-8.55-2.038c-.028.042-2.764 4.17-6.674 4.215-1.665 0-2.904-.457-3.785-1.395-.88-.939-1.33-2.238-1.33-3.927 0-1.188.241-2.178.72-2.94a6.154 6.154 0 011.907-1.938 9.7 9.7 0 012.706-1.181 34.401 34.401 0 013.096-.692l4.254-.742a.815.815 0 00.674-.751c.152-2.606.035-4.445-1.023-5.565-.652-.692-1.594-1.029-2.878-1.029-2.56 0-3.098 1.001-3.464 2.128-.15.466-.25.775-.668 1.036-.6.375-1.736.57-3.378.58a.125.125 0 01-.055-.106 4.036 4.036 0 011.165-2.954c1.195-1.207 3.23-1.817 6.05-1.817 1.45 0 2.644.202 3.546.604a4.596 4.596 0 012.008 1.627 6.83 6.83 0 011.02 2.653c.18 1.026.28 3.36.29 3.611l-.132 8.47v.076c.189 2.442.798 2.808 1.001 2.927.477.286 1.158.453 2.07.5v.144H52.46c-.007-.93-.017-2.42-.017-3.098a.813.813 0 00-1.495-.443l-.006.007z" fill="url(#paint0_linear_291_6113)"/><path d="M51.74 22.795a.811.811 0 00-.933-.815 30.77 30.77 0 00-.673.107 4.72 4.72 0 00-.672.169 19.6 19.6 0 00-1.154.26 24.61 24.61 0 00-1.145.323h-.016c-1.202.4-2.87 1.428-3.611 3.003a3.658 3.658 0 00-.109 2.942 3.38 3.38 0 003.02 2.231c.077 0 .155.008.231.008.606 0 1.2-.162 1.723-.47a8.222 8.222 0 001.627-1.113c1.227-1.079 1.745-1.821 1.768-3.63.006-.49-.013-1.028-.03-1.548a31.864 31.864 0 01-.026-1.467zm-2.785 5.427a6.56 6.56 0 01-1.32.9l-.04.023a1.759 1.759 0 01-.917.25h-.125a1.799 1.799 0 01-.981-.34 1.846 1.846 0 01-.626-.855 2.014 2.014 0 01.064-1.662c.488-1.038 1.68-1.827 2.647-2.151a23.044 23.044 0 012.164-.548.896.896 0 00.114-.03c.064-.022.125-.042.192-.06 0 .191.01.376.017.57.018.5.034 1.023.029 1.476-.018 1.17-.199 1.532-1.218 2.427z" fill="url(#paint1_linear_291_6113)"/><path d="M35.912 31.22h-.201c-.853 0-1.502-.175-1.933-.519a6.646 6.646 0 01-1.073-1.643c-.276-.588-7.896-18.937-11.888-28.557a.814.814 0 00-.75-.501H17.88a.815.815 0 00-.74.478L4.126 29.26c-.17.397-.38.777-.626 1.133-.11.153-.25.28-.412.376a1.86 1.86 0 01-.652.175c-.388.046-.916.135-1.568.265H.813a.813.813 0 00-.813.814v1.752a.814.814 0 00.813.813h9.83a.813.813 0 00.813-.813v-1.911a.813.813 0 00-.717-.808c-.413-.05-.75-.09-1.051-.132-.404-.055-.538-.155-.585-.25.286-.739 1.516-3.618 2.203-5.226l.67-1.573H23.77l2.557 6.173.022.051a.951.951 0 01.125.533.333.333 0 01-.01.052l-.012.006c-.433.194-.89.329-1.36.402a9.766 9.766 0 01-.984.103.814.814 0 00-.766.813v1.774a.813.813 0 00.814.813h11.687a.812.812 0 00.812-.782l.068-1.752a.812.812 0 00-.814-.844l.003.004zm-.85 1.752h-10.09v-.216c.125-.016.25-.034.375-.054a7.01 7.01 0 001.793-.535l.026-.013a1.66 1.66 0 00.915-1.289 2.51 2.51 0 00-.266-1.46l-2.753-6.651a.811.811 0 00-.751-.5H11.436a.819.819 0 00-.762.526 183.99 183.99 0 01-.864 2.035c-2.357 5.517-2.357 5.556-2.357 5.804a.452.452 0 000 .057c.034.482.298 1.627 2.017 1.86l.358.048v.39H1.633v-.242c.407-.075.742-.125 1.001-.159a3.44 3.44 0 001.241-.364c.368-.208.687-.492.935-.833.314-.45.581-.93.798-1.434L18.401 1.626h1.126c1.612 3.879 11.387 27.442 11.709 28.123.352.764.818 1.47 1.384 2.092a.643.643 0 00.074.07c.603.513 1.401.817 2.377.907l-.009.154z" fill="url(#paint2_linear_291_6113)"/><path d="M18.727 7.31a.814.814 0 00-1.501-.006l-5.595 13.15a.815.815 0 00.75 1.132H23.44a.815.815 0 00.75-1.126L18.728 7.31zM13.61 19.96l4.357-10.238 4.255 10.237H13.61z" fill="url(#paint3_linear_291_6113)"/><defs><linearGradient id="paint0_linear_291_6113" x1="23.496" y1="94.271" x2="74.637" y2="-32.917" gradientUnits="userSpaceOnUse"><stop stop-color="#FDEDC9"/><stop offset=".02" stop-color="#F2DDB2"/><stop offset=".07" stop-color="#D6B678"/><stop offset=".08" stop-color="#D0AD6A"/><stop offset=".09" stop-color="#C7A261"/><stop offset=".14" stop-color="#A47B3E"/><stop offset=".18" stop-color="#895C23"/><stop offset=".23" stop-color="#75460F"/><stop offset=".27" stop-color="#693903"/><stop offset=".31" stop-color="#663500"/><stop offset=".35" stop-color="#6A3A04"/><stop offset=".4" stop-color="#794A13"/><stop offset=".46" stop-color="#90652A"/><stop offset=".52" stop-color="#B0894A"/><stop offset=".57" stop-color="#D0AD6A"/><stop offset=".67" stop-color="#ECD5A6"/><stop offset=".73" stop-color="#FDEDC9"/><stop offset=".76" stop-color="#F2DDB2"/><stop offset=".82" stop-color="#D6B678"/><stop offset=".84" stop-color="#D0AD6A"/><stop offset=".95" stop-color="#84571E"/><stop offset="1" stop-color="#663500"/></linearGradient><linearGradient id="paint1_linear_291_6113" x1="23.496" y1="94.271" x2="74.637" y2="-32.917" gradientUnits="userSpaceOnUse"><stop stop-color="#FDEDC9"/><stop offset=".02" stop-color="#F2DDB2"/><stop offset=".07" stop-color="#D6B678"/><stop offset=".08" stop-color="#D0AD6A"/><stop offset=".09" stop-color="#C7A261"/><stop offset=".14" stop-color="#A47B3E"/><stop offset=".18" stop-color="#895C23"/><stop offset=".23" stop-color="#75460F"/><stop offset=".27" stop-color="#693903"/><stop offset=".31" stop-color="#663500"/><stop offset=".35" stop-color="#6A3A04"/><stop offset=".4" stop-color="#794A13"/><stop offset=".46" stop-color="#90652A"/><stop offset=".52" stop-color="#B0894A"/><stop offset=".57" stop-color="#D0AD6A"/><stop offset=".67" stop-color="#ECD5A6"/><stop offset=".73" stop-color="#FDEDC9"/><stop offset=".76" stop-color="#F2DDB2"/><stop offset=".82" stop-color="#D6B678"/><stop offset=".84" stop-color="#D0AD6A"/><stop offset=".95" stop-color="#84571E"/><stop offset="1" stop-color="#663500"/></linearGradient><linearGradient id="paint2_linear_291_6113" x1="23.496" y1="94.271" x2="74.637" y2="-32.917" gradientUnits="userSpaceOnUse"><stop stop-color="#FDEDC9"/><stop offset=".02" stop-color="#F2DDB2"/><stop offset=".07" stop-color="#D6B678"/><stop offset=".08" stop-color="#D0AD6A"/><stop offset=".09" stop-color="#C7A261"/><stop offset=".14" stop-color="#A47B3E"/><stop offset=".18" stop-color="#895C23"/><stop offset=".23" stop-color="#75460F"/><stop offset=".27" stop-color="#693903"/><stop offset=".31" stop-color="#663500"/><stop offset=".35" stop-color="#6A3A04"/><stop offset=".4" stop-color="#794A13"/><stop offset=".46" stop-color="#90652A"/><stop offset=".52" stop-color="#B0894A"/><stop offset=".57" stop-color="#D0AD6A"/><stop offset=".67" stop-color="#ECD5A6"/><stop offset=".73" stop-color="#FDEDC9"/><stop offset=".76" stop-color="#F2DDB2"/><stop offset=".82" stop-color="#D6B678"/><stop offset=".84" stop-color="#D0AD6A"/><stop offset=".95" stop-color="#84571E"/><stop offset="1" stop-color="#663500"/></linearGradient><linearGradient id="paint3_linear_291_6113" x1="23.496" y1="94.271" x2="74.637" y2="-32.917" gradientUnits="userSpaceOnUse"><stop stop-color="#FDEDC9"/><stop offset=".02" stop-color="#F2DDB2"/><stop offset=".07" stop-color="#D6B678"/><stop offset=".08" stop-color="#D0AD6A"/><stop offset=".09" stop-color="#C7A261"/><stop offset=".14" stop-color="#A47B3E"/><stop offset=".18" stop-color="#895C23"/><stop offset=".23" stop-color="#75460F"/><stop offset=".27" stop-color="#693903"/><stop offset=".31" stop-color="#663500"/><stop offset=".35" stop-color="#6A3A04"/><stop offset=".4" stop-color="#794A13"/><stop offset=".46" stop-color="#90652A"/><stop offset=".52" stop-color="#B0894A"/><stop offset=".57" stop-color="#D0AD6A"/><stop offset=".67" stop-color="#ECD5A6"/><stop offset=".73" stop-color="#FDEDC9"/><stop offset=".76" stop-color="#F2DDB2"/><stop offset=".82" stop-color="#D6B678"/><stop offset=".84" stop-color="#D0AD6A"/><stop offset=".95" stop-color="#84571E"/><stop offset="1" stop-color="#663500"/></linearGradient></defs></svg>