<svg width="56" height="54" fill="none" xmlns="http://www.w3.org/2000/svg"><path d="M9.918 9.007l7.988 3.941m0 0l19.5 9.622m-19.5-9.622L9.92 16.89m7.986-3.94l19.5-9.623m-7.475 9.655h20.346c2.274 0 4.137 1.83 4.137 4.004V48.42c0 2.195-1.87 4.004-4.137 4.004H9.3c-2.261 0-4.135-1.809-4.135-4.004V28.955M7.942 1.302c2.778.869 4.295 3.308 3.39 5.449-.904 2.14-3.899 3.164-6.68 2.308C1.873 8.202.358 5.75 1.263 3.61c.904-2.141 3.9-3.165 6.68-2.309zm0 23.29c2.778-.869 4.295-3.308 3.39-5.449-.904-2.14-3.899-3.165-6.68-2.306-2.78.86-4.295 3.305-3.39 5.448.904 2.144 3.9 3.165 6.68 2.306z" stroke="url(#paint0_linear_291_6141)" stroke-width="2" stroke-linecap="round" stroke-linejoin="round" stroke-dasharray="5 5"/><defs><linearGradient id="paint0_linear_291_6141" x1="22.015" y1="138.46" x2="120.795" y2="-12.23" gradientUnits="userSpaceOnUse"><stop stop-color="#FDEDC9"/><stop offset=".02" stop-color="#F2DDB2"/><stop offset=".07" stop-color="#D6B678"/><stop offset=".08" stop-color="#D0AD6A"/><stop offset=".09" stop-color="#C7A261"/><stop offset=".14" stop-color="#A47B3E"/><stop offset=".18" stop-color="#895C23"/><stop offset=".23" stop-color="#75460F"/><stop offset=".27" stop-color="#693903"/><stop offset=".31" stop-color="#663500"/><stop offset=".35" stop-color="#6A3A04"/><stop offset=".4" stop-color="#794A13"/><stop offset=".46" stop-color="#90652A"/><stop offset=".52" stop-color="#B0894A"/><stop offset=".57" stop-color="#D0AD6A"/><stop offset=".67" stop-color="#ECD5A6"/><stop offset=".73" stop-color="#FDEDC9"/><stop offset=".76" stop-color="#F2DDB2"/><stop offset=".82" stop-color="#D6B678"/><stop offset=".84" stop-color="#D0AD6A"/><stop offset=".95" stop-color="#84571E"/><stop offset="1" stop-color="#663500"/></linearGradient></defs></svg>