<svg width="57" height="39" fill="none" xmlns="http://www.w3.org/2000/svg"><path d="M2.636 38.855s-.176 0-.265-.046c-2.52-.655-3.626-4.968-.287-7.114 0 0 .044-.022.066-.045l24.827-13.753-.066-.497c-.067-1.355.155-3.05 1.37-4.11 5.837-5.014 4.356-8.492 1.791-9.78-2.741-1.377-6.654-.451-6.809 4.269 0 .587-.486 1.039-1.061 1.016-.575 0-1.017-.497-.995-1.084.221-6.595 6.124-7.95 9.794-6.098 4.023 2.01 5.482 7.408-1.37 13.28-.51.429-.686 1.332-.664 2.303l.066.52 25.38 13.934c1.702.88 2.609 2.53 2.587 4.088 0 1.603-1.084 3.117-3.073 3.117H2.614h.022zm51.313-2.123c.42 0 .707-.158.862-.407H2.37a1.3 1.3 0 00.265.316l.177.09H53.95zm.353-2.53l-.044-.045a3.405 3.405 0 00-.818-.61L28.127 19.658 3.145 33.502l-.575.474s-.11.136-.155.204h51.887v.022z" fill="url(#paint0_linear_291_6248)"/><defs><linearGradient id="paint0_linear_291_6248" x1="22.426" y1="102.43" x2="82.344" y2="-29.572" gradientUnits="userSpaceOnUse"><stop stop-color="#FDEDC9"/><stop offset=".02" stop-color="#F2DDB2"/><stop offset=".07" stop-color="#D6B678"/><stop offset=".08" stop-color="#D0AD6A"/><stop offset=".09" stop-color="#C7A261"/><stop offset=".14" stop-color="#A47B3E"/><stop offset=".18" stop-color="#895C23"/><stop offset=".23" stop-color="#75460F"/><stop offset=".27" stop-color="#693903"/><stop offset=".31" stop-color="#663500"/><stop offset=".35" stop-color="#6A3A04"/><stop offset=".4" stop-color="#794A13"/><stop offset=".46" stop-color="#90652A"/><stop offset=".52" stop-color="#B0894A"/><stop offset=".57" stop-color="#D0AD6A"/><stop offset=".67" stop-color="#ECD5A6"/><stop offset=".73" stop-color="#FDEDC9"/><stop offset=".76" stop-color="#F2DDB2"/><stop offset=".82" stop-color="#D6B678"/><stop offset=".84" stop-color="#D0AD6A"/><stop offset=".95" stop-color="#84571E"/><stop offset="1" stop-color="#663500"/></linearGradient></defs></svg>