<svg width="50" height="46" fill="none" xmlns="http://www.w3.org/2000/svg"><path d="M7.07 45.998c-.357 0-.673-.208-.862-.52L.115 33.971a.97.97 0 01.61-1.392 110.02 110.02 0 0010.883-3.677l.252-.104-1.134-1.267c-1.807-2.201-3.152-4.466-3.908-6.688a1.032 1.032 0 01-.042-.436L8.373 7.819c0-.125.063-.25.126-.374l.063-.062.105-.603a6.21 6.21 0 01.63-1.433c.82-1.371 2.185-2.493 4.055-3.365l1.85-.727.23-.125c4.791-1.309 9.624-1.516 14.52-.436l1.87.478.21.062.084.042.924.311c2.774 1.08 4.602 2.721 5.253 4.86l.147.665.042.042a.985.985 0 01.126.374l1.786 12.858c0 .145 0 .29-.042.436-.777 2.306-2.206 4.674-4.16 7l-1.03 1.143 2.564 1.059a120.964 120.964 0 0011.556 3.822.978.978 0 01.483 1.579l-8.95 10.24a1 1 0 01-.799.333.748.748 0 01-.294-.063c-4.644-1.682-8.825-3.572-12.712-5.712l-3.446-2.035-1.912 1.163c-4.329 2.492-9.161 4.736-14.288 6.584a1.077 1.077 0 01-.357.063h.063zm32.757-2.14l7.501-8.579-.588-.166-2.143-.685-3.236 4.133a.972.972 0 01-.84.374.834.834 0 01-.526-.208c-.441-.332-.504-.934-.168-1.37l2.816-3.573-1.072-.333-1.891-.706-3.257 4.155c-.189.228-.441.373-.735.373h-.126c-.19 0-.379-.083-.547-.207a.976.976 0 01-.168-1.371l2.879-3.677-1.093-.395-1.597-.664-3.173 4.03c-.189.228-.44.353-.735.373h-.126c-.189 0-.378-.083-.546-.207a.976.976 0 01-.168-1.371l.735-.914-1.05.893a71.763 71.763 0 01-3.32 2.451l-1.177.769 2.08 1.246c3.278 1.849 6.808 3.51 10.653 5.006l1.597.602.02.021zm-32.274-.062l5.127-2.056c12.418-5.484 21.957-13.025 25.214-19.92l.567-1.393-1.05-7.644-.253.499-.672 1.038v.063l.672 5.483a.967.967 0 01-.861 1.08h-.105a.976.976 0 01-.988-.851l-.42-3.573-.252.312a36.735 36.735 0 01-1.807 1.849l-.042.041.82 4.923a.972.972 0 01-.82 1.122h-.19a.944.944 0 01-.924-.81l-.63-3.74-.357.312-1.912 1.434 1.071 4.902a1.002 1.002 0 01-.756 1.163c-.063 0-.126.02-.21.02a.985.985 0 01-.967-.768l-.903-4.092-1.513.997-1.072.644 1.282 4.736a.951.951 0 01-.693 1.184c-.105.02-.19.042-.294.042a.935.935 0 01-.904-.727l-1.156-4.238-2.458 1.35 1.45 4.445a.976.976 0 01-.63 1.226c-.106.042-.19.042-.295.042-.42 0-.82-.25-.945-.665L18.31 28.05l-2.29 1.1-.168.063 1.68 4.383a.965.965 0 01-.567 1.246 1.203 1.203 0 01-.378.063.969.969 0 01-.882-.624l-1.64-4.32-2.374.997-.252.083 1.891 4.32c.21.499 0 1.06-.504 1.288a.83.83 0 01-.378.083c-.378 0-.757-.207-.904-.581l-1.933-4.425-2.584.935-.105.042 2.164 4.362a.988.988 0 01-.441 1.308.967.967 0 01-.484.104c-.357 0-.672-.207-.84-.54L5.01 33.305l-2.585.81 5.127 9.68zm6.22-15.787l.294-.125 2.038-.934a.84.84 0 01.105-.374l2.248-4.528-.147-.104a34.554 34.554 0 01-1.66-1.267l-.672-.561-1.177 4.216a.982.982 0 01-.924.707c-.105 0-.19 0-.295-.042a.982.982 0 01-.693-1.205l1.429-5.13-.589-.54c-.44-.416-.84-.852-1.24-1.267l-.251-.291-.63 3.531c-.085.457-.484.79-.946.81h-.21a.995.995 0 01-.799-1.122l.925-5.255-.126-.166c-.273-.415-.547-.831-.757-1.246l-.042-.083-.945 7.394.105.291c.693 1.849 1.87 3.76 3.488 5.712l1.428 1.58h.043zm5.084-2.41l1.324-.664 1.387-.79-1.492-.955-1.198 2.41h-.02zm4.623-2.554l1.954-1.226c3.173-2.098 5.736-4.237 7.606-6.294a21.463 21.463 0 001.744-2.202l-.61-.644c-2.226-1.91-6.219-2.908-10.526-2.825-4.286.083-8.468 1.226-10.99 3.137l-.44.395.924 1.225c1.828 2.223 4.518 4.59 8.027 6.938l2.31 1.475v.02zM11.21 11.682l.21-.187c3.004-2.305 7.71-3.49 12.186-3.572 4.454-.084 9.098.893 11.893 3.323l.294.312.126-.27c.588-1.309.798-2.472.672-3.51-.105-.852-.462-1.663-1.114-2.39l-.167-.166.041 2.576c0 .54-.42.976-.966.976s-.988-.415-.988-.955l-.063-3.905V3.83l-.82-.373-1.239-.437-.189-.041.042 3.261c0 .54-.42.976-.966.976-.547 0-.988-.415-.988-.955l-.042-3.76-2.038-.353-.63-.042.042 3.365c0 .54-.42.977-.967.977-.546 0-.988-.416-.988-.956l-.041-3.531h-2.27l-.588.062.042 3.74c0 .54-.42.976-.967.976-.546 0-.987-.416-.987-.956l-.042-3.552-2.564.54.063 3.884c0 .54-.42.977-.966.998-.546 0-.988-.416-.988-.956l-.042-3.344-.126.041c-.294.125-.588.25-.84.374l-1.114.623.063 3.947c0 .54-.42.976-.966.976-.547 0-.988-.415-.988-.955V6.178l-.168.187c-.735 1.225-.82 2.72-.168 4.486l.4.852-.085-.02z" fill="url(#paint0_linear_291_6244)"/><defs><linearGradient id="paint0_linear_291_6244" x1="19.672" y1="122.959" x2="106.37" y2="-15.447" gradientUnits="userSpaceOnUse"><stop stop-color="#FDEDC9"/><stop offset=".02" stop-color="#F2DDB2"/><stop offset=".07" stop-color="#D6B678"/><stop offset=".08" stop-color="#D0AD6A"/><stop offset=".09" stop-color="#C7A261"/><stop offset=".14" stop-color="#A47B3E"/><stop offset=".18" stop-color="#895C23"/><stop offset=".23" stop-color="#75460F"/><stop offset=".27" stop-color="#693903"/><stop offset=".31" stop-color="#663500"/><stop offset=".35" stop-color="#6A3A04"/><stop offset=".4" stop-color="#794A13"/><stop offset=".46" stop-color="#90652A"/><stop offset=".52" stop-color="#B0894A"/><stop offset=".57" stop-color="#D0AD6A"/><stop offset=".67" stop-color="#ECD5A6"/><stop offset=".73" stop-color="#FDEDC9"/><stop offset=".76" stop-color="#F2DDB2"/><stop offset=".82" stop-color="#D6B678"/><stop offset=".84" stop-color="#D0AD6A"/><stop offset=".95" stop-color="#84571E"/><stop offset="1" stop-color="#663500"/></linearGradient></defs></svg>