<svg width="32" height="32" fill="none" xmlns="http://www.w3.org/2000/svg"><path d="M8.864 26.926l.482.285a13.164 13.164 0 006.708 1.837h.005c7.264 0 13.177-5.91 13.18-13.176a13.095 13.095 0 00-3.857-9.321 13.095 13.095 0 00-9.318-3.864c-7.27 0-13.182 5.91-13.185 13.175a13.14 13.14 0 002.015 7.011l.313.499-1.331 4.862 4.988-1.308zM.068 32l2.25-8.214A15.823 15.823 0 01.201 15.86C.205 7.12 7.318.01 16.06.01a15.759 15.759 0 0111.217 4.648 15.756 15.756 0 014.64 11.215c-.003 8.74-7.117 15.853-15.857 15.853h-.007a15.846 15.846 0 01-7.577-1.93L.068 32z" fill="#fff"/><path d="M.739 15.848c0 2.718.71 5.343 2.069 7.659L.615 31.444l8.122-2.13c2.224 1.234 4.756 1.852 7.32 1.852 8.431 0 15.318-6.856 15.318-15.287 0-4.108-1.606-7.937-4.478-10.84C23.994 2.167 20.164.56 16.057.56 7.626.56.739 7.417.739 15.848z" fill="url(#paint0_linear_1_1113)"/><path fill-rule="evenodd" clip-rule="evenodd" d="M12.096 9.24c-.296-.66-.609-.674-.891-.685-.231-.01-.496-.01-.76-.01s-.693.1-1.056.496c-.363.397-1.387 1.355-1.387 3.304 0 1.95 1.42 3.834 1.618 4.098.198.265 2.74 4.393 6.768 5.981 3.347 1.32 4.028 1.057 4.755.991.726-.066 2.344-.958 2.674-1.883.33-.925.33-1.718.231-1.884-.099-.165-.363-.264-.76-.462-.395-.198-2.343-1.157-2.707-1.29-.363-.131-.627-.197-.891.2-.264.396-1.023 1.288-1.254 1.552-.232.265-.463.298-.859.1-.396-.199-1.672-.617-3.186-1.967-1.178-1.05-1.973-2.347-2.204-2.743-.232-.397-.025-.611.174-.809.177-.177.396-.462.594-.694.198-.231.264-.396.396-.66.132-.265.066-.496-.033-.695-.1-.198-.87-2.157-1.222-2.94z" fill="#fff"/><defs><linearGradient id="paint0_linear_1_1113" x1="15.993" y1="31.444" x2="15.993" y2=".561" gradientUnits="userSpaceOnUse"><stop stop-color="#20B038"/><stop offset="1" stop-color="#60D66A"/></linearGradient></defs></svg>