<svg width="32" height="32" fill="none" xmlns="http://www.w3.org/2000/svg"><g clip-path="url(#clip0_291_5993)"><path d="M15.343 32h1.333c7.233 0 10.85 0 13.097-2.246C32.019 27.507 32 23.89 32 16.676v-1.352c0-7.214 0-10.831-2.227-13.078C27.546 0 23.909 0 16.676 0h-1.333C8.11 0 4.493 0 2.246 2.246 0 4.493 0 8.107 0 15.324v1.352c0 7.215 0 10.831 2.246 13.078C4.493 32 8.11 32 15.343 32z" fill="#2683ED"/><path d="M17.17 23.072c-7.215 0-11.594-5.006-11.764-13.325h3.655c.114 6.11 2.894 8.704 5.025 9.233V9.747h3.503v5.272c2.056-.227 4.206-2.626 4.93-5.272h3.445c-.551 3.255-2.892 5.654-4.549 6.643 1.657.8 4.322 2.894 5.35 6.682h-3.788c-.8-2.532-2.761-4.493-5.388-4.76v4.76h-.418z" fill="#fff"/></g><defs><clipPath id="clip0_291_5993"><rect width="32" height="32" rx="16" fill="#fff"/></clipPath></defs></svg>